<svg data-v-423bf9ae="" xmlns="http://www.w3.org/2000/svg" viewBox="0 0 612 90" class="iconLeft"><!----><!----><!----><g data-v-423bf9ae="" id="58292e8b-cd87-4ef6-b902-a1b3bc5efe63" fill="#36231D" transform="matrix(6.030150291393008,0,0,6.030150291393008,104.3152104517286,-5.261304353680956)"><path d="M1.05 11.90L1.05 11.90C1.86 12.54 3.16 13.30 4.66 13.31L4.66 13.31C5.64 13.31 6.52 13.02 7.18 12.54L7.18 12.54C7.84 12.07 8.29 11.37 8.29 10.58L8.29 10.58C8.29 9.80 7.85 9.16 7.21 8.74L7.21 8.74C6.57 8.30 5.70 8.02 4.72 7.84L4.69 7.84L4.69 7.84C3.81 7.67 3.08 7.43 2.59 7.10L2.59 7.10C2.10 6.76 1.88 6.40 1.86 5.91L1.86 5.91C1.86 5.40 2.14 4.93 2.63 4.56L2.63 4.56C3.12 4.21 3.84 3.98 4.63 3.98L4.63 3.98C5.71 3.98 6.55 4.51 7.32 5.01L7.32 5.01C7.46 5.11 7.66 5.07 7.74 4.93L7.74 4.93C7.84 4.77 7.80 4.59 7.66 4.49L7.66 4.49C6.89 3.99 5.92 3.36 4.63 3.36L4.63 3.36C3.71 3.36 2.88 3.63 2.27 4.07L2.27 4.07C1.65 4.52 1.25 5.17 1.25 5.91L1.25 5.91C1.25 6.64 1.65 7.22 2.25 7.62L2.25 7.62C2.86 8.02 3.65 8.27 4.56 8.44L4.59 8.44L4.59 8.44C5.54 8.62 6.33 8.89 6.86 9.24L6.86 9.24C7.39 9.60 7.66 10.02 7.66 10.58L7.66 10.58C7.66 11.13 7.36 11.65 6.82 12.04L6.82 12.04C6.29 12.43 5.52 12.68 4.66 12.68L4.66 12.68C3.39 12.70 2.17 12.01 1.44 11.42L1.44 11.42C1.32 11.31 1.12 11.33 1.01 11.47L1.01 11.47C0.91 11.59 0.92 11.79 1.05 11.90ZM18.35 12.96C18.35 13.15 18.49 13.30 18.69 13.30C18.87 13.30 19.03 13.15 19.03 12.96L19.03 3.89C19.03 3.84 19.00 3.77 18.97 3.71C18.94 3.67 18.91 3.64 18.87 3.60C18.72 3.50 18.49 3.53 18.40 3.68L14.92 8.51L11.44 3.68C11.33 3.53 11.12 3.50 10.96 3.60C10.95 3.61 10.93 3.61 10.93 3.63C10.85 3.68 10.79 3.78 10.79 3.89L10.79 12.96C10.79 13.15 10.95 13.30 11.14 13.30C11.33 13.30 11.48 13.15 11.48 12.96L11.48 4.91L14.62 9.25C14.69 9.37 14.78 9.41 14.91 9.41L14.94 9.41C15.04 9.41 15.15 9.37 15.22 9.25L18.35 4.90L18.35 12.96ZM29.20 13.12C29.22 13.15 29.25 13.16 29.26 13.17C29.33 13.26 29.41 13.30 29.53 13.30C29.72 13.30 29.88 13.15 29.88 12.96L29.88 3.93C29.88 3.75 29.72 3.60 29.53 3.60C29.34 3.60 29.19 3.75 29.19 3.93L29.19 11.91L23.25 3.68C23.16 3.53 22.93 3.50 22.78 3.60C22.65 3.70 22.61 3.84 22.65 3.98L22.65 12.96C22.65 13.15 22.81 13.30 22.99 13.30C23.17 13.30 23.32 13.15 23.32 12.96L23.32 4.94L29.20 13.12ZM37.60 12.96C37.60 13.15 37.76 13.30 37.94 13.30C38.14 13.30 38.29 13.15 38.29 12.96L38.29 9.11L40.71 9.09C42.25 9.09 43.50 7.84 43.50 6.30C43.50 4.76 42.25 3.50 40.71 3.50L37.98 3.50L37.94 3.50C37.76 3.50 37.60 3.65 37.60 3.84ZM38.29 8.43L38.29 4.19L40.71 4.19C41.87 4.19 42.83 5.14 42.83 6.30C42.83 7.46 41.87 8.41 40.71 8.43ZM51.03 6.44C50.85 6.44 50.69 6.58 50.69 6.78L50.69 7.78C50.11 6.97 49.17 6.44 48.12 6.44C46.31 6.44 44.87 7.99 44.87 9.87C44.87 11.75 46.31 13.30 48.12 13.30C49.17 13.30 50.11 12.75 50.69 11.94L50.69 12.96C50.69 13.15 50.85 13.30 51.03 13.30C51.21 13.30 51.37 13.15 51.37 12.96L51.37 6.78C51.37 6.58 51.21 6.44 51.03 6.44ZM48.12 12.63C46.72 12.63 45.54 11.41 45.54 9.87C45.54 8.33 46.72 7.10 48.12 7.10C49.53 7.10 50.69 8.33 50.69 9.87C50.69 11.41 49.53 12.63 48.12 12.63ZM53.84 12.32L53.84 12.32C54.40 12.77 55.27 13.29 56.38 13.30L56.38 13.30C57.05 13.30 57.61 13.10 58.09 12.75L58.09 12.75C58.55 12.40 58.87 11.94 58.87 11.37L58.87 11.37C58.87 10.79 58.55 10.26 58.10 9.97L58.10 9.97C57.62 9.70 57.09 9.51 56.43 9.41L56.41 9.41L56.41 9.41C55.78 9.31 55.31 9.14 55.01 8.93L55.01 8.93C54.74 8.72 54.61 8.53 54.61 8.25L54.61 8.25C54.61 7.97 54.77 7.69 55.05 7.46L55.05 7.46C55.34 7.22 55.79 7.07 56.35 7.07L56.35 7.07C57.02 7.07 57.53 7.42 58.03 7.76L58.03 7.76C58.18 7.85 58.39 7.81 58.49 7.66L58.49 7.66C58.59 7.50 58.55 7.29 58.39 7.18L58.39 7.18C57.86 6.85 57.23 6.44 56.35 6.44L56.35 6.44C55.65 6.44 55.08 6.62 54.67 6.90L54.67 6.90C54.24 7.22 53.93 7.70 53.93 8.25L53.93 8.25C53.93 8.78 54.24 9.23 54.67 9.48L54.67 9.48C55.06 9.76 55.61 9.90 56.22 10.01L56.25 10.02L56.25 10.02C56.92 10.14 57.41 10.30 57.71 10.53L57.71 10.53C58.06 10.82 58.18 11.05 58.20 11.37L58.20 11.37C58.20 11.68 58.02 11.98 57.68 12.21L57.68 12.21C57.37 12.46 56.91 12.63 56.38 12.63L56.38 12.63C55.51 12.63 54.75 12.18 54.28 11.83L54.28 11.83C54.12 11.70 53.91 11.73 53.80 11.87L53.80 11.87C53.69 12.01 53.70 12.19 53.84 12.32ZM63.43 6.44L62.55 6.44L62.55 3.89C62.55 3.72 62.37 3.56 62.19 3.56C62.02 3.56 61.85 3.72 61.85 3.89L61.85 6.44L61.00 6.44C60.66 6.44 60.66 6.61 60.66 6.78C60.66 6.94 60.66 7.11 61.00 7.11L61.85 7.11L61.85 12.11C61.85 12.80 62.37 13.30 63.06 13.30C63.22 13.30 63.41 13.13 63.41 12.96C63.41 12.80 63.22 12.61 63.06 12.61C62.89 12.61 62.55 12.45 62.55 12.11L62.55 7.11L63.43 7.11C63.60 7.11 63.77 6.94 63.77 6.78C63.77 6.61 63.60 6.44 63.43 6.44ZM69.82 13.30C67.97 13.30 66.49 11.76 66.49 9.88C66.49 7.98 67.97 6.44 69.82 6.44C71.58 6.44 72.98 7.84 73.12 9.63L73.12 9.65L73.12 9.69C73.12 9.87 72.97 10.00 72.79 10.00L67.16 10.00C67.23 11.49 68.40 12.63 69.82 12.63C70.73 12.63 71.57 12.15 72.03 11.38C72.13 11.21 72.34 11.19 72.48 11.27C72.63 11.38 72.69 11.58 72.59 11.75C72.00 12.68 70.98 13.30 69.82 13.30ZM69.82 7.11C68.53 7.11 67.45 8.04 67.20 9.34L72.39 9.34C72.17 8.05 71.08 7.11 69.82 7.11ZM69.03 5.32C69.22 5.32 69.31 5.29 69.48 5.14L70.60 4.06C70.69 3.98 70.76 3.89 70.76 3.81C70.76 3.67 70.43 3.49 70.17 3.49C70 3.49 69.89 3.57 69.78 3.74L68.91 5.04C68.88 5.08 68.85 5.14 68.85 5.19C68.85 5.26 68.94 5.32 69.03 5.32ZM75.52 12.96L75.52 12.96C75.52 13.15 75.67 13.30 75.85 13.30L75.85 13.30C76.05 13.30 76.20 13.15 76.20 12.96L76.20 6.78L76.20 6.78C76.20 6.58 76.05 6.44 75.85 6.44L75.85 6.44C75.67 6.44 75.52 6.58 75.52 6.78ZM75.52 4.86L75.52 4.86C75.52 5.05 75.67 5.22 75.85 5.22L75.85 5.22C76.05 5.22 76.20 5.05 76.20 4.86L76.20 4.54L76.20 4.54C76.20 4.35 76.05 4.20 75.85 4.20L75.85 4.20C75.67 4.20 75.52 4.35 75.52 4.54ZM79.00 12.32L79.00 12.32C79.56 12.77 80.43 13.29 81.54 13.30L81.54 13.30C82.21 13.30 82.77 13.10 83.24 12.75L83.24 12.75C83.71 12.40 84.03 11.94 84.03 11.37L84.03 11.37C84.03 10.79 83.71 10.26 83.26 9.97L83.26 9.97C82.78 9.70 82.25 9.51 81.59 9.41L81.56 9.41L81.56 9.41C80.93 9.31 80.47 9.14 80.16 8.93L80.16 8.93C79.90 8.72 79.77 8.53 79.77 8.25L79.77 8.25C79.77 7.97 79.93 7.69 80.21 7.46L80.21 7.46C80.50 7.22 80.95 7.07 81.51 7.07L81.51 7.07C82.18 7.07 82.68 7.42 83.19 7.76L83.19 7.76C83.34 7.85 83.55 7.81 83.65 7.66L83.65 7.66C83.75 7.50 83.71 7.29 83.55 7.18L83.55 7.18C83.02 6.85 82.39 6.44 81.51 6.44L81.51 6.44C80.81 6.44 80.23 6.62 79.83 6.90L79.83 6.90C79.39 7.22 79.09 7.70 79.09 8.25L79.09 8.25C79.09 8.78 79.39 9.23 79.83 9.48L79.83 9.48C80.22 9.76 80.77 9.90 81.38 10.01L81.41 10.02L81.41 10.02C82.08 10.14 82.57 10.30 82.87 10.53L82.87 10.53C83.22 10.82 83.34 11.05 83.36 11.37L83.36 11.37C83.36 11.68 83.17 11.98 82.84 12.21L82.84 12.21C82.53 12.46 82.07 12.63 81.54 12.63L81.54 12.63C80.67 12.63 79.91 12.18 79.44 11.83L79.44 11.83C79.28 11.70 79.07 11.73 78.96 11.87L78.96 11.87C78.85 12.01 78.86 12.19 79.00 12.32Z"></path></g><defs data-v-423bf9ae=""><linearGradient data-v-423bf9ae="" gradientTransform="rotate(25)" id="1a7ea2e6-34c5-4a15-a26c-8c093101ebc6" x1="0%" y1="0%" x2="100%" y2="0%"><stop data-v-423bf9ae="" offset="0%" style="stop-color: rgb(235, 110, 0); stop-opacity: 1;"></stop><stop data-v-423bf9ae="" offset="100%" style="stop-color: rgb(243, 188, 230); stop-opacity: 1;"></stop></linearGradient></defs><g data-v-423bf9ae="" id="30ba1bba-cc50-4fdb-9753-16c9f8d5eac1" transform="matrix(2.8125,0,0,2.8125,0,0)" stroke="none" fill="url(#1a7ea2e6-34c5-4a15-a26c-8c093101ebc6)"><path d="M0 32h32V0H0v32zM2.038 2.038h27.923v27.923H2.038V2.038z"></path><path d="M4.038 27.962h23.923V4.038H4.038v23.924zM21.049 8.25h3.402v3.402h-3.402V8.25zm0 6.049h3.402v3.402h-3.402v-3.402zm0 6.049h3.402v3.402h-3.402v-3.402zM14.299 8.25h3.402v3.402h-3.402V8.25zm0 6.049h3.402v3.402h-3.402v-3.402zm0 6.049h3.402v3.402h-3.402v-3.402zM7.549 8.25h3.402v3.402H7.549V8.25zm0 6.049h3.402v3.402H7.549v-3.402zm0 6.049h3.402v3.402H7.549v-3.402z"></path></g><!----></svg>